<svg xmlns="http://www.w3.org/2000/svg" width="612" height="792" viewBox="0 0 612 792"><path fill-rule="evenodd" clip-rule="evenodd" fill="#fff" d="M271.5 383.17v45.83h69v-52.07h-18.49v44.86h-3.72v-58.79h-22.11v58.79h-3.81v-38.62h-20.87zm54.13-1.34h11.15v13.16h-11.15v-13.16zm0 26.73h11.15v13.16h-11.15v-13.16zm-25.73-41.81h14.77v6.24h-14.77v-6.24zm0 15.39h14.77v6.24h-14.77v-6.24zm0 16.49h14.77v6.24h-14.77v-6.24zm0 15.39h14.77v6.25h-14.77v-6.25zm-24.87-26.14h4.95v8.65h-4.95v-8.65zm8.76 0h4.96v8.65h-4.96v-8.65zm0 24.89h4.96v8.65h-4.96v-8.65zm-8.76 0h4.95v8.65h-4.95v-8.65z"/></svg>