<?xml version="1.0" encoding="utf-8"?>
<!-- Generator: Adobe Illustrator 14.0.0, SVG Export Plug-In . SVG Version: 6.00 Build 43363)  -->
<!DOCTYPE svg PUBLIC "-//W3C//DTD SVG 1.1//EN" "http://www.w3.org/Graphics/SVG/1.1/DTD/svg11.dtd">
<svg version="1.1" id="Layer_1" xmlns="http://www.w3.org/2000/svg" xmlns:xlink="http://www.w3.org/1999/xlink" x="0px" y="0px"
	 width="612px" height="792px" viewBox="0 0 612 792" enable-background="new 0 0 612 792" xml:space="preserve">
<path fill-rule="evenodd" clip-rule="evenodd" fill="#FFFFFF" d="M271.5,383.17V429h2.1h18.77h3.81h22.11h3.72h14.49h4v-52.07
	h-18.49v44.86h-3.72V363h-22.11v58.79h-3.81v-38.62H271.5z M325.63,381.83h11.15v13.16h-11.15V381.83z M325.63,400.56h11.15v13.16
	h-11.15V400.56z M299.9,366.75h14.77v6.24H299.9V366.75z M299.9,379.14h14.77v6.24H299.9V379.14z M299.9,391.63h14.77v6.24H299.9
	V391.63z M299.9,404.02h14.77v6.25H299.9V404.02z M275.03,387.88h4.95v8.65h-4.95V387.88z M283.79,387.88h4.96v8.65h-4.96V387.88z
	 M283.79,402.77h4.96v8.65h-4.96V402.77z M275.03,402.77h4.95v8.65h-4.95V402.77z"/>
</svg>
