<?xml version="1.0" encoding="utf-8"?>
<!-- Generator: Adobe Illustrator 18.0.0, SVG Export Plug-In . SVG Version: 6.00 Build 0)  -->
<!DOCTYPE svg PUBLIC "-//W3C//DTD SVG 1.1//EN" "http://www.w3.org/Graphics/SVG/1.1/DTD/svg11.dtd">
<svg version="1.1" id="Layer_1" xmlns="http://www.w3.org/2000/svg" xmlns:xlink="http://www.w3.org/1999/xlink" x="0px" y="0px"
	 viewBox="276 366 57 59" enable-background="new 276 366 57 59" xml:space="preserve">
<path fill="#007ABC" d="M314,419.5c0,3,2.5,5.5,5.5,5.5s5.5-2.5,5.5-5.5s-2.5-5.5-5.5-5.5S314,416.5,314,419.5z M297,419.5
	c0,3,2.5,5.5,5.5,5.5s5.5-2.5,5.5-5.5s-2.5-5.5-5.5-5.5S297,416.5,297,419.5z M295,410h32v-1.3l1,1.3l4.8-20h0.2v-1v-4h-40.3
	l-4.8-19h-12v5h9.3l4.8,19L295,410z M325.3,405h-27.5l-3.8-15h35L325.3,405z"/>
</svg>
