<?xml version="1.0" encoding="utf-8"?>
<!-- Generator: Adobe Illustrator 18.1.0, SVG Export Plug-In . SVG Version: 6.00 Build 0)  -->
<svg version="1.1" id="Capa_1" xmlns="http://www.w3.org/2000/svg" xmlns:xlink="http://www.w3.org/1999/xlink" x="0px" y="0px"
	 viewBox="12.3 128 554.7 533" enable-background="new 12.3 128 554.7 533" xml:space="preserve">
<path fill="#0077BE" d="M561.2,281.6c4.9,6.1,6.7,13.5,5.5,22L543.5,437c-0.8,6.9-4,12.6-9.5,17.1c-5.5,4.5-11.7,6.7-18.7,6.7h-339
	l-6.7,37.9h323.1c7.8,0,14.5,2.8,20.2,8.3c5.7,5.5,8.6,12.3,8.6,20.5s-2.9,15-8.6,20.5c-5.7,5.5-12.4,8.3-20.2,8.3H135.3
	c-8.6,0-15.9-3.5-22-10.4c-5.7-6.9-8-14.9-6.7-23.9l15.3-83.2L98.5,205.1l-66.1-20.8c-7.8-2.4-13.4-7.1-16.8-14.1s-4.2-14.3-2.1-22
	c2.4-7.8,7.2-13.4,14.4-16.8s14.4-4.2,21.7-2.1l84.5,26.9c5.3,1.6,9.7,4.7,13.2,9.2s5.6,9.6,6.4,15.3l4.9,46.5l383.1,42.8
	C550.2,271.2,556.7,275,561.2,281.6z M178.7,572.3c12.2,0,22.6,4.3,31.2,12.9c8.6,8.6,12.9,19,12.9,31.2c0,12.2-4.3,22.7-12.9,31.5
	c-8.6,8.8-19,13.2-31.2,13.2s-22.6-4.4-31.2-13.2c-8.6-8.8-12.9-19.3-12.9-31.5s4.3-22.6,12.9-31.2
	C156.1,576.5,166.5,572.3,178.7,572.3z M440,572.3c12.2,0,22.6,4.3,31.2,12.9c8.6,8.6,12.9,19,12.9,31.2c0,12.2-4.3,22.7-12.9,31.5
	c-8.6,8.8-19,13.2-31.2,13.2c-12.2,0-22.6-4.4-31.2-13.2c-8.6-8.8-12.9-19.3-12.9-31.5s4.3-22.6,12.9-31.2
	C417.4,576.5,427.8,572.3,440,572.3z"/>
</svg>
