<?xml version="1.0" encoding="utf-8"?>
<!-- Generator: Adobe Illustrator 18.0.0, SVG Export Plug-In . SVG Version: 6.00 Build 0)  -->
<!DOCTYPE svg PUBLIC "-//W3C//DTD SVG 1.1//EN" "http://www.w3.org/Graphics/SVG/1.1/DTD/svg11.dtd">
<svg version="1.1" id="Layer_1" xmlns="http://www.w3.org/2000/svg" xmlns:xlink="http://www.w3.org/1999/xlink" x="0px" y="0px"
	 viewBox="293 383 26 26" enable-background="new 293 383 26 26" xml:space="preserve">
<path fill="#D5D5D5" d="M316.8,383h-20.6H293v25.8l3.2,0.2h20.6h2.2v-25.8L316.8,383z M312.7,390c-0.4,0-0.9,0.1-1.4,0.4
	c-0.5,0.2-0.7,0.5-0.7,0.9v2h3.3v3.3h-3.3v9.2h-3.3v-9.2h-1.6v-3.3h1.6v-1.7c0-1.4,0.3-2.5,1-3.3s1.6-1.3,2.9-1.3
	c1.7,0,2.9,0.1,3.6,0.4l-0.5,3C313.8,390,313.3,390,312.7,390z"/>
</svg>
