<svg xmlns="http://www.w3.org/2000/svg" viewBox="293 383 26 26" enable-background="new 293 383 26 26"><path fill="#D5D5D5" d="M316.8 383h-23.8v26h26v-26h-2.2zm-14.5 7.6c0 .5-.2.9-.5 1.2-.3.3-.8.5-1.2.5s-.9-.1-1.2-.5c-.3-.3-.5-.7-.5-1.1 0-.5.2-.9.5-1.2.3-.3.7-.4 1.2-.4s.9.1 1.2.4c.3.3.5.6.5 1.1zm-3.3 2.9h3.2v10.5h-3.2v-10.5zm11.7 4.7c0-1.5-.5-2.3-1.6-2.3-.4 0-.7.1-1 .4-.3.2-.5.5-.6.9-.1.2-.1.5-.1.8v6h-3.2c0-5.2 0-8.7-.1-10.5h2.8l.2 1.5c.3-.5.8-1 1.4-1.3.6-.3 1.2-.5 1.8-.5 1.2 0 2.2.4 2.8 1.3.6.9.9 1.9.9 3.3v6.2h-3.2l-.1-5.8z"/></svg>