<svg xmlns="http://www.w3.org/2000/svg" width="612" height="792" viewBox="0 0 612 792"><path fill-rule="evenodd" clip-rule="evenodd" fill="#fff" d="M275.63 365.63h60.74v60.74h-60.74v-60.74zm-2.63-2.63v66h66v-66h-66zm7.6 7.6h14.76v14.55h-14.76v-14.55zm17.74 0h15.54v14.55h-15.54v-14.55zm18.51.22h14.77v14.54h-14.77v-14.54zm-36.25 17.3h14.76v15.51h-14.76v-15.51zm17.74 0h15.76v15.51h-15.76v-15.51zm18.6.27h14.68v15.49h-14.68v-15.49zm-36.34 18.28h14.76v14.51h-14.76v-14.51zm17.74 0h15.76v14.51h-15.76v-14.51zm18.6.24h14.68v14.49h-14.68v-14.49z"/></svg>