<svg xmlns="http://www.w3.org/2000/svg" width="612" height="792" viewBox="0 0 612 792"><path clip-rule="evenodd" stroke="#fff" stroke-width="5" stroke-linecap="round" stroke-linejoin="round" d="M259 396c0-6.63 5.43-12 12.13-12 6.71 0 12.14 5.37 12.14 12s-5.43 12-12.14 12c-6.7 0-12.13-5.37-12.13-12zm35.47 0c0-6.63 5.43-12 12.14-12 6.7 0 12.13 5.37 12.13 12s-5.43 12-12.13 12c-6.71 0-12.14-5.37-12.14-12zm34.26 0c0-6.63 5.43-12 12.14-12 6.7 0 12.13 5.37 12.13 12s-5.43 12-12.13 12c-6.71 0-12.14-5.37-12.14-12z" fill="none"/></svg>