<?xml version="1.0" encoding="utf-8"?>
<!-- Generator: Adobe Illustrator 14.0.0, SVG Export Plug-In . SVG Version: 6.00 Build 43363)  -->
<!DOCTYPE svg PUBLIC "-//W3C//DTD SVG 1.1//EN" "http://www.w3.org/Graphics/SVG/1.1/DTD/svg11.dtd">
<svg version="1.1" id="Layer_1" xmlns="http://www.w3.org/2000/svg" xmlns:xlink="http://www.w3.org/1999/xlink" x="0px" y="0px"
	 width="612px" height="792px" viewBox="0 0 612 792" enable-background="new 0 0 612 792" xml:space="preserve">
<path fill-rule="evenodd" clip-rule="evenodd" fill="none" stroke="#FFFFFF" stroke-width="4" stroke-linecap="round" stroke-linejoin="round" d="
	M261.5,396c0-5.52,4.48-10,10-10s10,4.48,10,10s-4.48,10-10,10S261.5,401.52,261.5,396z M296.5,396c0-5.52,4.48-10,10-10
	s10,4.48,10,10s-4.48,10-10,10S296.5,401.52,296.5,396z M330.5,396c0-5.52,4.48-10,10-10s10,4.48,10,10s-4.48,10-10,10
	S330.5,401.52,330.5,396z"/>
</svg>
