<?xml version="1.0" encoding="utf-8"?>
<!-- Generator: Adobe Illustrator 14.0.0, SVG Export Plug-In . SVG Version: 6.00 Build 43363)  -->
<!DOCTYPE svg PUBLIC "-//W3C//DTD SVG 1.1//EN" "http://www.w3.org/Graphics/SVG/1.1/DTD/svg11.dtd">
<svg version="1.1" id="Layer_1" xmlns="http://www.w3.org/2000/svg" xmlns:xlink="http://www.w3.org/1999/xlink" x="0px" y="0px"
	 width="612px" height="792px" viewBox="0 0 612 792" enable-background="new 0 0 612 792" xml:space="preserve">
<path fill-rule="evenodd" clip-rule="evenodd" fill="none" stroke="#FFFFFF" stroke-width="5" stroke-linecap="round" stroke-linejoin="round" d="
	M259,396c0-6.63,5.43-12,12.13-12c6.71,0,12.14,5.37,12.14,12s-5.43,12-12.14,12C264.43,408,259,402.63,259,396z M294.47,396
	c0-6.63,5.43-12,12.14-12c6.7,0,12.13,5.37,12.13,12s-5.43,12-12.13,12C299.9,408,294.47,402.63,294.47,396z M328.73,396
	c0-6.63,5.43-12,12.14-12c6.7,0,12.13,5.37,12.13,12s-5.43,12-12.13,12C334.16,408,328.73,402.63,328.73,396z"/>
</svg>
