<svg xmlns="http://www.w3.org/2000/svg" viewBox="243.5 368.5 125 55" enable-background="new 243.5 368.5 125 55"><path fill="#fff" d="M332.9 400.4l12.7 5.4c1.5.6 1.5 1.6-.1 2.3l-13.3 5.2c-1.6.6-4.1.6-5.6 0l-12.7-5.4c-1.5-.6-1.5-1.6.1-2.3l13.3-5.2c1.6-.7 4.1-.7 5.6 0zm-24.7 9.8l12.7 5.4c1.5.6 1.5 1.6-.1 2.3l-13.3 5.2c-1.6.6-4.1.6-5.6 0l-12.7-5.4c-1.5-.6-1.5-1.6.1-2.3l13.3-5.2c1.6-.6 4.1-.6 5.6 0zm-22.8-10.2l12.7 5.4c1.5.6 1.5 1.6-.1 2.3l-13.3 5.2c-1.6.6-4.1.6-5.6 0l-12.7-5.4c-1.5-.6-1.5-1.6.1-2.3l13.3-5.2c1.6-.7 4.1-.7 5.6 0zm-21.9-10.3l12.7 5.4c1.5.6 1.5 1.7-.1 2.3l-13.3 5.2c-1.6.6-4.1.6-5.6 0l-12.7-5.4c-1.5-.6-1.5-1.6.1-2.3l13.3-5.2c1.6-.6 4.1-.6 5.6 0zm45.6.4l12.7 5.4c1.5.6 1.5 1.6-.1 2.3l-13.3 5.2c-1.6.6-4.1.6-5.6 0l-12.7-5.4c-1.5-.6-1.5-1.6.1-2.3l13.3-5.2c1.6-.6 4.1-.6 5.6 0zm-22.8-11.2l12.7 5.4c1.5.6 1.5 1.6-.1 2.3l-13.3 5.2c-1.6.6-4.1.6-5.6 0l-12.7-5.4c-1.5-.6-1.5-1.6.1-2.3l13.3-5.2c1.6-.7 4.1-.7 5.6 0zm68.4 10.6l12.7 5.4c1.5.6 1.5 1.6-.1 2.3l-13.3 5.2c-1.6.6-4.1.6-5.6 0l-12.7-5.4c-1.5-.6-1.5-1.7.1-2.3l13.3-5.2c1.6-.7 4.1-.6 5.6 0zm-21.8-10.3l12.7 5.4c1.5.6 1.5 1.6-.1 2.3l-13.3 5.2c-1.6.6-4.1.6-5.6 0l-12.7-5.4c-1.5-.6-1.5-1.6.1-2.3l13.3-5.2c1.6-.6 4.1-.6 5.6 0zm-22.9-10.2l12.7 5.4c1.5.6 1.5 1.6-.1 2.3l-13.3 5.2c-1.6.6-4.1.6-5.6 0l-12.7-5.4c-1.5-.6-1.5-1.6.1-2.3l13.3-5.2c1.6-.7 4.1-.6 5.6 0z"/></svg>