<?xml version="1.0" encoding="utf-8"?>
<!-- Generator: Adobe Illustrator 18.0.0, SVG Export Plug-In . SVG Version: 6.00 Build 0)  -->
<!DOCTYPE svg PUBLIC "-//W3C//DTD SVG 1.1//EN" "http://www.w3.org/Graphics/SVG/1.1/DTD/svg11.dtd">
<svg version="1.1" id="Layer_1" xmlns="http://www.w3.org/2000/svg" xmlns:xlink="http://www.w3.org/1999/xlink" x="0px" y="0px"
	 viewBox="243.5 368.5 125 55" enable-background="new 243.5 368.5 125 55" xml:space="preserve">
<path fill="#FFFFFF" d="M332.9,400.4l12.7,5.4c1.5,0.6,1.5,1.6-0.1,2.3l-13.3,5.2c-1.6,0.6-4.1,0.6-5.6,0l-12.7-5.4
	c-1.5-0.6-1.5-1.6,0.1-2.3l13.3-5.2C328.9,399.7,331.4,399.7,332.9,400.4z M308.2,410.2l12.7,5.4c1.5,0.6,1.5,1.6-0.1,2.3l-13.3,5.2
	c-1.6,0.6-4.1,0.6-5.6,0l-12.7-5.4c-1.5-0.6-1.5-1.6,0.1-2.3l13.3-5.2C304.2,409.6,306.7,409.6,308.2,410.2z M285.4,400l12.7,5.4
	c1.5,0.6,1.5,1.6-0.1,2.3l-13.3,5.2c-1.6,0.6-4.1,0.6-5.6,0l-12.7-5.4c-1.5-0.6-1.5-1.6,0.1-2.3l13.3-5.2
	C281.4,399.3,283.9,399.3,285.4,400z M263.5,389.7l12.7,5.4c1.5,0.6,1.5,1.7-0.1,2.3l-13.3,5.2c-1.6,0.6-4.1,0.6-5.6,0l-12.7-5.4
	c-1.5-0.6-1.5-1.6,0.1-2.3l13.3-5.2C259.5,389.1,262,389.1,263.5,389.7z M309.1,390.1l12.7,5.4c1.5,0.6,1.5,1.6-0.1,2.3l-13.3,5.2
	c-1.6,0.6-4.1,0.6-5.6,0l-12.7-5.4c-1.5-0.6-1.5-1.6,0.1-2.3l13.3-5.2C305.1,389.5,307.6,389.5,309.1,390.1z M286.3,378.9l12.7,5.4
	c1.5,0.6,1.5,1.6-0.1,2.3l-13.3,5.2c-1.6,0.6-4.1,0.6-5.6,0l-12.7-5.4c-1.5-0.6-1.5-1.6,0.1-2.3l13.3-5.2
	C282.3,378.2,284.8,378.2,286.3,378.9z M354.7,389.5l12.7,5.4c1.5,0.6,1.5,1.6-0.1,2.3l-13.3,5.2c-1.6,0.6-4.1,0.6-5.6,0l-12.7-5.4
	c-1.5-0.6-1.5-1.7,0.1-2.3l13.3-5.2C350.7,388.8,353.2,388.9,354.7,389.5z M332.9,379.2l12.7,5.4c1.5,0.6,1.5,1.6-0.1,2.3l-13.3,5.2
	c-1.6,0.6-4.1,0.6-5.6,0l-12.7-5.4c-1.5-0.6-1.5-1.6,0.1-2.3l13.3-5.2C328.9,378.6,331.4,378.6,332.9,379.2z M310,369l12.7,5.4
	c1.5,0.6,1.5,1.6-0.1,2.3l-13.3,5.2c-1.6,0.6-4.1,0.6-5.6,0l-12.7-5.4c-1.5-0.6-1.5-1.6,0.1-2.3l13.3-5.2
	C306,368.3,308.5,368.4,310,369z"/>
</svg>
