<?xml version="1.0" encoding="utf-8"?>
<svg width="64" height="64" viewBox="0 0 64 64" xmlns="http://www.w3.org/2000/svg">
	<g>
		<path fill-rule="evenodd" clip-rule="evenodd" fill="#fff" d="M330.93 398.85l12.73 5.4c1.5.64 1.45 1.65-.12 2.26l-13.27 5.18c-1.57.61-4.06.59-5.57-.05l-12.72-5.4c-1.51-.63-1.46-1.65.11-2.26l13.27-5.17c1.57-.62 4.07-.59 5.57.04zm-22.74 8.87l12.72 5.4c1.51.63 1.46 1.65-.11 2.26l-13.27 5.17c-1.57.62-4.07.6-5.57-.04l-12.73-5.4c-1.51-.63-1.45-1.65.12-2.26l13.27-5.17c1.57-.62 4.06-.6 5.57.04zm-21.82-9.24l12.73 5.39c1.5.64 1.45 1.65-.12 2.26l-13.27 5.18c-1.57.61-4.06.59-5.57-.05l-12.73-5.39c-1.5-.64-1.45-1.65.12-2.27l13.27-5.17c1.57-.61 4.06-.59 5.57.05zm-21.82-9.25l12.73 5.39c1.5.64 1.45 1.66-.12 2.27l-13.27 5.17c-1.57.61-4.06.59-5.57-.05l-12.72-5.39c-1.51-.64-1.46-1.65.11-2.26l13.27-5.18c1.57-.61 4.06-.59 5.57.05zm44.56.38l12.73 5.39c1.51.64 1.45 1.65-.12 2.27l-13.26 5.17c-1.57.61-4.07.59-5.57-.05l-12.73-5.39c-1.51-.64-1.45-1.65.12-2.27l13.26-5.17c1.57-.61 4.07-.59 5.57.05zm-21.81-9.25l12.72 5.4c1.51.63 1.46 1.65-.11 2.26l-13.27 5.17c-1.57.62-4.07.59-5.57-.04l-12.73-5.4c-1.5-.64-1.45-1.65.12-2.26l13.27-5.18c1.57-.61 4.06-.59 5.57.05zm66.38 9.63l12.72 5.39c1.51.64 1.46 1.65-.11 2.26l-13.27 5.18c-1.57.61-4.06.59-5.57-.05l-12.73-5.39c-1.5-.64-1.45-1.66.12-2.27l13.27-5.17c1.57-.61 4.06-.59 5.57.05zm-21.82-9.25l12.73 5.39c1.5.64 1.45 1.65-.12 2.27l-13.27 5.17c-1.57.61-4.06.59-5.57-.05l-12.73-5.39c-1.5-.64-1.45-1.65.12-2.26l13.27-5.18c1.57-.61 4.06-.59 5.57.05zm-21.82-9.25l12.73 5.4c1.51.63 1.45 1.65-.12 2.26l-13.27 5.17c-1.57.62-4.06.6-5.57-.04l-12.72-5.4c-1.51-.63-1.46-1.65.11-2.26l13.27-5.17c1.57-.62 4.07-.6 5.57.04z"/>
	</g>
</svg>