<?xml version="1.0" encoding="utf-8"?>
<!-- Generator: Adobe Illustrator 18.0.0, SVG Export Plug-In . SVG Version: 6.00 Build 0)  -->
<!DOCTYPE svg PUBLIC "-//W3C//DTD SVG 1.1//EN" "http://www.w3.org/Graphics/SVG/1.1/DTD/svg11.dtd">
<svg version="1.1" id="Layer_1" xmlns="http://www.w3.org/2000/svg" xmlns:xlink="http://www.w3.org/1999/xlink" x="0px" y="0px"
	 viewBox="0 782.1 59 59.8" enable-background="new 0 782.1 59 59.8" xml:space="preserve">
<g>
	<path fill="#FFFFFF" d="M59,792.9v43c0,0-12.8-9-39-2c-15.4,4.1-20,2-20,2v-43c0,0,20.7-1.8,32-5C43.4,784.7,59,792.9,59,792.9z
		 M59,839.9v2c0,0-10.8-10-37-3c-15.4,4.1-22,3-22,3v-1c0,0,20.7-1.8,32-5C43.4,832.7,59,839.9,59,839.9z M59,786.9v2
		c0,0-10.8-10-37-3c-15.4,4.1-22,3-22,3v-1c0,0,20.7-1.8,32-5C43.4,779.7,59,786.9,59,786.9z"/>
</g>
</svg>
