<?xml version="1.0" encoding="utf-8"?>
<!-- Generator: Adobe Illustrator 18.0.0, SVG Export Plug-In . SVG Version: 6.00 Build 0)  -->
<!DOCTYPE svg PUBLIC "-//W3C//DTD SVG 1.1//EN" "http://www.w3.org/Graphics/SVG/1.1/DTD/svg11.dtd">
<svg version="1.1" id="Layer_1" xmlns="http://www.w3.org/2000/svg" xmlns:xlink="http://www.w3.org/1999/xlink" x="0px" y="0px"
	 viewBox="276.5 366.2 59 60" enable-background="new 276.5 366.2 59 60" xml:space="preserve">
	 <g>
	<path fill="#FFFFFF" d="M276.5,377v43c0,0,12.8-9,39-2c15.4,4.1,20,2,20,2v-43c0,0-20.7-1.8-32-5C292.1,368.8,276.5,377,276.5,377z
		 M276.5,424v2c0,0,10.8-10,37-3c15.4,4.1,22,3,22,3v-1c0,0-20.7-1.8-32-5C292.1,416.8,276.5,424,276.5,424z M276.5,371v2
		c0,0,10.8-10,37-3c15.4,4.1,22,3,22,3v-1c0,0-20.7-1.8-32-5C292.1,363.8,276.5,371,276.5,371z"/>
	</g>
</svg>
