<?xml version="1.0" encoding="utf-8"?>
<!-- Generator: Adobe Illustrator 18.1.0, SVG Export Plug-In . SVG Version: 6.00 Build 0)  -->
<!DOCTYPE svg PUBLIC "-//W3C//DTD SVG 1.1//EN" "http://www.w3.org/Graphics/SVG/1.1/DTD/svg11.dtd">
<svg version="1.1" id="Layer_1" xmlns="http://www.w3.org/2000/svg" xmlns:xlink="http://www.w3.org/1999/xlink" x="0px" y="0px"
	 viewBox="1023 10.7 203.5 57.4" enable-background="new 1023 10.7 203.5 57.4" xml:space="preserve">
<g>
	<path d="M1075.4,40.7l8.1-6.9v-0.4l-11.1-11.6l9-10.6c0.1-0.2,0-0.4-0.2-0.4l-4.4,0c-0.2,0-0.3,0.1-0.5,0.2l-5.1,3.7l0-3.6
		c0-0.1-0.1-0.3-0.2-0.3l-4.8,0c-0.1,0-0.1,0-0.2,0.1l-9,6.2l-0.2,0l0,0l-1.1-0.1l0,0l-1.1-0.1h0l-1.1,0h0l-1.1,0h0l-1.1,0.1l0,0
		l-1.1,0.1l0,0l-1.1,0.2l0,0l-1.1,0.2l0,0l-1,0.3l0,0l-1,0.3l0,0l-1,0.4l0,0l-1,0.4l0,0l-1,0.5l0,0l-6.8,3.6c-2.1,1.1-4,2.5-5.7,4.2
		c-4.4,4.3-7.1,10.3-7.2,16.9c-0.1,6.6,2.6,12.6,6.9,17s10.3,7.1,16.9,7.2c6.6,0.1,12.6-2.6,17-6.9c0.8-0.8,1.6-1.7,2.3-2.6l4.8-6.2
		l0,0l0.6-0.9l0,0l0.6-0.9l0,0l0.5-0.9l0,0l0.5-0.9l0,0l0.5-1l0,0l0.4-1l0,0l0.4-1l0,0l0.3-1l0,0l0.3-1.1l0,0l0.2-1.1l0,0l0.2-1.1
		l0,0L1075.4,40.7L1075.4,40.7z"/>
	<path fill="#DADADA" d="M1043.1,30.8l4.8-3.4c1.4,0.1,2.8,0.4,4.1,0.8l-3,2.2l-5.9,6.3L1043.1,30.8L1043.1,30.8z M1049.9,30.4
		l2.6-1.9c0.9,0.4,1.9,0.8,2.8,1.4l-0.9,0.6L1049.9,30.4L1049.9,30.4z M1045.7,41.5l8.8-10.5l1.2-0.9c0.9,0.6,1.7,1.2,2.4,1.9
		L1045.7,41.5L1045.7,41.5z M1044.6,43l13.9-10.6c5.6,5.8,5.9,14.1,2.1,20.3l-3.7,3.1L1044.6,43L1044.6,43z M1042.9,55.6l0-5.8
		l3.2,3.2L1042.9,55.6L1042.9,55.6z M1030.4,42.2c0.6-5.2,3-9,6.8-11.7L1037,56c0,0.2,0.1,0.3,0.3,0.3l2.3,0l3.1,0
		c0.1,0,0.1,0,0.2-0.1l3.7-2.9l2.9,2.9c0.1,0.1,0.2,0.1,0.3,0.1l7.1,0.1c0.1,0,0.2,0,0.3-0.1l2.3-2c-0.7,0.8-1.4,1.6-2.3,2.3
		c-1.9,1.5-3.9,2.6-6.2,3.2c-4.8,1.2-9.6,0.2-13.8-2.7C1032.3,53.8,1029.8,47.5,1030.4,42.2L1030.4,42.2z M1057.6,17l8.6-5.9l3.9,0
		l-9.5,6.7C1059.7,17.5,1058.7,17.3,1057.6,17L1057.6,17z M1061.2,18.1l9.5-6.7l0,3.6l-6.4,4.6L1061.2,18.1L1061.2,18.1z
		 M1064.7,19.8l11.9-8.6l3.8,0l-13.6,10.1L1064.7,19.8L1064.7,19.8z M1067.3,21.6l12.4-9.2l-7.8,9.2l-2.5,1.9L1067.3,21.6
		L1067.3,21.6z M1069.7,23.9c4,4.5,6,9.8,5.8,16.1l7.6-6.5l-11-11.4L1069.7,23.9L1069.7,23.9z M1037.4,30.4c1-0.7,2.2-1.3,3.3-1.8
		c1.8-0.8,4.3-1.2,6.4-1.1l-4.2,3L1037.4,30.4L1037.4,30.4z M1044.8,20.2L1044.8,20.2L1044.8,20.2c0.4,0,0.8-0.1,1.2-0.1l0,0h0
		c0.4,0,0.8,0,1.2,0c0,0,0,0,0,0c0,0,0,0,0,0c0,0,0,0,0,0c0,0,0,0,0,0c0.4,0,0.8,0,1.2,0h0l0,0c0.4,0,0.8,0.1,1.2,0.1l0,0h0
		c5.6,0.6,10.7,3.2,14.5,7c3.8,3.8,6.3,8.9,6.8,14.6v0l0,0c0,0.4,0.1,0.8,0.1,1.1l0,0v0v0c0,0.4,0,0.8,0,1.2c0,0,0,0,0,0s0,0,0,0
		s0,0,0,0c0,0,0,0,0,0c0,0.4,0,0.8,0,1.2v0v0l0,0c0,0.4-0.1,0.8-0.1,1.1l0,0l0,0c-0.3,2.8-1.1,5.5-2.4,8l2-2.6l0.6-0.9l0.6-0.9l0,0
		l0.5-0.9l0,0l0.5-0.9l0.4-1l0.4-1l0,0l0.4-1l0.3-1l0.3-1.1l0,0l0.2-1.1l0.1-1.1l0,0l0.1-1.1v0l0-1.1l0-1.1v0l-0.1-1.1l0,0l-0.1-1.1
		l-0.2-1.1l0,0l-0.2-1.1l-0.3-1l-0.3-1l0,0l-0.4-1l-0.4-1l-0.5-1l0,0l-0.5-0.9l0,0l-0.6-0.9l-0.6-0.9l0,0l-0.7-0.8l0,0l-0.7-0.8
		l-0.7-0.8l-0.8-0.7l-0.8-0.7l0,0l-0.8-0.7l0,0l-0.9-0.6l-0.9-0.6l0,0l-0.9-0.5l0,0l-0.9-0.5l-1-0.4l-1-0.4l0,0l-1-0.4l-1-0.3
		l-1.1-0.3l0,0l-1.1-0.2l-1.1-0.1l0,0l-1.1-0.1h0l-1.1,0l-1.1,0h0l-1.1,0.1l0,0l-1.1,0.1l-1.1,0.2l0,0l-1.1,0.2l-1,0.3l-1,0.3l0,0
		l-1,0.4l-1,0.4l-1,0.5l0,0l-2.7,1.5C1041.6,20.6,1043.2,20.3,1044.8,20.2L1044.8,20.2z"/>
	<path fill="#0080C9" d="M1047,20.6c13,0,23.5,10.6,23.5,23.5S1060,67.6,1047,67.6c-13,0-23.5-10.6-23.5-23.5S1034.1,20.6,1047,20.6
		L1047,20.6z M1046.7,27c9.3,0,16.9,7.6,16.9,16.9s-7.6,16.9-16.9,16.9c-9.3,0-16.9-7.6-16.9-16.9S1037.4,27,1046.7,27L1046.7,27z
		 M1037.5,55.8l5,0l0.1-6.8c0-0.2,0.3-0.3,0.4-0.2l6.8,6.9l6.5,0.1L1044,43c-0.1-0.1-0.1-0.2,0-0.3l9.9-11.8l-4.6-0.1l-6.3,6.7
		c-0.1,0.2-0.4,0-0.4-0.2l0.1-6.6l-5,0L1037.5,55.8L1037.5,55.8z"/>
</g>
<g>
	<g>
		<path fill="#0E7FC3" d="M1117.5,37.6c0-2.1-0.7-3.9-2.2-5.2c-1.5-1.4-3.3-2-5.5-2c-2.2,0-4,0.7-5.5,2s-2.2,3.1-2.2,5.2
			s0.7,3.9,2.2,5.2c1.5,1.4,3.3,2,5.5,2c2.2,0,4-0.7,5.5-2C1116.8,41.4,1117.5,39.7,1117.5,37.6z M1112.3,40.1c-0.6,0.7-1.4,1-2.4,1
			c-1,0-1.8-0.3-2.4-1c-0.6-0.7-0.9-1.5-0.9-2.5s0.3-1.8,0.9-2.5c0.6-0.7,1.4-1,2.4-1c1,0,1.8,0.3,2.4,1c0.6,0.7,0.9,1.5,0.9,2.5
			S1112.9,39.4,1112.3,40.1z M1122.4,42c1.2,0,2.3-0.3,3.1-0.8v3.3h3.8V34.4h-3.8v3.8c-0.4,0.3-1,0.4-1.6,0.4c-1,0-1.5-0.5-1.5-1.4
			v-2.8h-3.8v4C1118.7,40.8,1119.9,42,1122.4,42z M1141.5,44.6v-6.1c0-0.8-0.1-1.5-0.4-2.1s-0.7-1-1.1-1.3c-0.5-0.3-1-0.5-1.6-0.7
			c-0.6-0.1-1.2-0.2-1.8-0.2c-1.9,0-3.5,0.5-4.8,1.5l1.3,2.3c0.9-0.7,1.8-1,2.8-1c0.6,0,1.1,0.1,1.4,0.4s0.5,0.5,0.5,0.9v1
			c-0.6-0.7-1.6-1.1-3.1-1.1c-0.6,0-1.1,0.1-1.6,0.3s-0.9,0.5-1.3,1s-0.6,1.2-0.6,1.9c0,1.1,0.4,1.9,1.1,2.5
			c0.7,0.6,1.5,0.9,2.4,0.9c0.6,0,1.2-0.1,1.8-0.3s1-0.5,1.3-0.9v1L1141.5,44.6L1141.5,44.6z M1136.2,42.4c-0.9,0-1.3-0.3-1.3-0.8
			c0-0.6,0.4-0.8,1.3-0.8c0.7,0,1.2,0.2,1.5,0.5v0.6C1137.5,42.2,1137,42.4,1136.2,42.4z M1147.7,42.3l0.7-1l1.7,3.3h4.6l-3.7-5.5
			l3.5-4.6h-4.6l-2.3,3.6v-3.6h-3.8v10.1h3.8L1147.7,42.3L1147.7,42.3z M1155.7,43.3c1,1,2.4,1.6,4.1,1.6c1.7,0,3.1-0.5,4.2-1.6
			c1-1,1.6-2.3,1.6-3.8s-0.5-2.7-1.6-3.8c-1-1-2.4-1.5-4.2-1.5c-1.7,0-3.1,0.5-4.1,1.5c-1,1-1.5,2.3-1.5,3.8
			C1154.2,41,1154.7,42.2,1155.7,43.3z M1158.5,38.1c0.3-0.4,0.8-0.6,1.3-0.6c0.6,0,1,0.2,1.3,0.6c0.3,0.4,0.5,0.8,0.5,1.4
			c0,0.6-0.2,1.1-0.5,1.4c-0.3,0.4-0.8,0.6-1.3,0.6c-0.6,0-1-0.2-1.3-0.6s-0.5-0.9-0.5-1.4C1158.1,38.9,1158.2,38.4,1158.5,38.1z
			 M1176.9,43.8c0.6-0.5,0.9-1.2,0.9-2c0-0.6-0.2-1.2-0.6-1.6c-0.4-0.4-0.8-0.7-1.4-0.8c0.5-0.2,0.9-0.4,1.3-0.8
			c0.3-0.4,0.5-0.9,0.5-1.5c0-0.7-0.3-1.3-0.9-1.8c-0.6-0.5-1.4-0.8-2.5-0.8h-7.3v10.1h7.5C1175.5,44.6,1176.3,44.3,1176.9,43.8z
			 M1170.7,37.2h2.6c0.1,0,0.3,0,0.3,0.1s0.1,0.2,0.1,0.3s0,0.2-0.1,0.3s-0.2,0.1-0.3,0.1h-2.6V37.2z M1173.8,41.6
			c-0.1,0.1-0.2,0.1-0.4,0.1h-2.7v-0.9h2.7c0.4,0,0.5,0.2,0.5,0.5C1173.9,41.4,1173.9,41.6,1173.8,41.6z M1186.7,40.6
			c-0.4,0.6-1,0.9-1.7,0.9c-0.6,0-1-0.2-1.4-0.5c-0.4-0.4-0.6-0.8-0.6-1.5s0.2-1.1,0.6-1.5c0.4-0.3,0.9-0.5,1.4-0.5
			c0.8,0,1.3,0.3,1.7,0.9l2.4-2.3c-0.3-0.5-0.9-0.9-1.6-1.3c-0.7-0.4-1.6-0.6-2.7-0.6c-1.6,0-3,0.5-4.1,1.5c-1.1,1-1.6,2.3-1.6,3.8
			c0,1.6,0.5,2.9,1.6,3.9c1.1,1,2.4,1.5,4.1,1.5c1.1,0,1.9-0.2,2.7-0.6c0.7-0.4,1.3-0.8,1.6-1.3L1186.7,40.6z M1194.7,42.3l0.7-1
			l1.7,3.3h4.6l-3.7-5.5l3.5-4.6h-4.6l-2.3,3.6v-3.6h-3.8v10.1h3.8L1194.7,42.3L1194.7,42.3z M1206.7,38.9v-4.5h-3.8v10.1h3.6
			l3.3-4.8v4.8h3.8V34.4h-3.8L1206.7,38.9z M1222.7,34.4l-3,4.5v-4.5h-3.8v10.1h3.6l3.3-4.8v4.8h3.8V34.4H1222.7z M1221.2,33.6
			c1.5,0,2.8-0.6,3.7-1.8l-1.6-1.3c-0.5,0.7-1.2,1.1-2.1,1.1c-0.9,0-1.6-0.4-2.1-1.1l-1.6,1.3C1218.4,32.9,1219.7,33.6,1221.2,33.6z
			 M1109.6,53.6h-3L1105,56v-2.4h-2.5v6.8h2.5v-1.5l0.5-0.7l1.2,2.2h3.1l-2.5-3.7L1109.6,53.6z M1114.2,53.4c-1.2,0-2.1,0.3-2.8,1
			c-0.7,0.7-1,1.5-1,2.5s0.3,1.8,1,2.5c0.7,0.7,1.6,1,2.8,1c1.2,0,2.1-0.3,2.8-1c0.7-0.7,1-1.5,1-2.5s-0.3-1.8-1-2.5
			C1116.3,53.7,1115.4,53.4,1114.2,53.4z M1115.1,57.9c-0.2,0.2-0.5,0.4-0.9,0.4c-0.4,0-0.7-0.1-0.9-0.4c-0.2-0.2-0.3-0.6-0.3-1
			c0-0.4,0.1-0.7,0.3-0.9c0.2-0.2,0.5-0.4,0.9-0.4c0.4,0,0.7,0.1,0.9,0.4s0.3,0.6,0.3,0.9C1115.4,57.3,1115.3,57.6,1115.1,57.9z
			 M1123.7,56.8l-1.2-3.3h-3.3v6.8h2.5v-3.7l1.3,3.7h1.4l1.3-3.7v3.7h2.5v-6.8h-3.3L1123.7,56.8z M1133.5,53.4c-0.9,0-1.5,0.3-2,0.9
			c0.1-0.4,0.3-0.7,0.7-0.9c0.3-0.2,0.9-0.4,1.6-0.5c1.8-0.3,2.7-0.9,2.7-1.9h-2.8c0,0.2-0.3,0.4-0.8,0.4c-1.3,0.2-2.2,0.7-2.8,1.5
			c-0.6,0.8-0.9,2.1-0.9,3.7c0,1.1,0.3,2.1,1,2.8c0.7,0.7,1.6,1.1,2.8,1.1c1.2,0,2.1-0.3,2.8-1c0.7-0.7,1-1.5,1-2.5
			c0-1-0.3-1.8-0.9-2.5C1135.2,53.7,1134.5,53.4,1133.5,53.4z M1133.8,57.9c-0.2,0.2-0.5,0.4-0.9,0.4c-0.4,0-0.7-0.1-0.9-0.4
			c-0.2-0.3-0.3-0.6-0.3-1c0-0.4,0.1-0.7,0.3-0.9c0.2-0.2,0.5-0.4,0.9-0.4c0.4,0,0.7,0.1,0.9,0.4c0.2,0.2,0.3,0.6,0.3,0.9
			C1134.1,57.3,1134,57.6,1133.8,57.9z M1140.4,56.6v-3h-2.5v6.8h2.4l2.2-3.2v3.2h2.5v-6.8h-2.5L1140.4,56.6z M1150.8,55.7h-2.1
			v-2.1h-2.5v6.8h2.5v-2.4h2.1v2.4h2.5v-6.8h-2.5V55.7z M1160,53.9c-0.3-0.2-0.7-0.3-1.1-0.4c-0.4-0.1-0.8-0.1-1.2-0.1
			c-1.3,0-2.3,0.3-3.2,1l0.9,1.6c0.6-0.4,1.2-0.7,1.9-0.7c0.4,0,0.7,0.1,0.9,0.2c0.2,0.2,0.3,0.4,0.3,0.6v0.7
			c-0.4-0.5-1.1-0.7-2-0.7c-0.4,0-0.7,0.1-1.1,0.2c-0.3,0.1-0.6,0.3-0.9,0.7c-0.3,0.3-0.4,0.8-0.4,1.3c0,0.7,0.2,1.3,0.7,1.6
			c0.5,0.4,1,0.6,1.6,0.6c0.4,0,0.8-0.1,1.2-0.2c0.4-0.1,0.7-0.3,0.8-0.6v0.6h2.5v-4.1c0-0.5-0.1-1-0.3-1.4
			C1160.6,54.4,1160.3,54.2,1160,53.9z M1158.5,58.5c-0.2,0.2-0.5,0.4-1,0.4c-0.6,0-0.9-0.2-0.9-0.5c0-0.4,0.3-0.6,0.9-0.6
			c0.5,0,0.8,0.1,1,0.4V58.5z M1162.5,55.7h1.8v4.6h2.5v-4.6h1.8v-2.2h-6.1L1162.5,55.7L1162.5,55.7z M1188,51h-3.5l-2.2,3.1V51
			h-2.8v3.1l-2.2-3.1h-3.5l3.5,4.3l-3.7,5h3.4l2.1-3.3l0.2,0.3v3h2.8v-3l0.2-0.3l2.1,3.3h3.4l-3.7-5L1188,51z M1194.2,54.2h-2.3
			v-0.7h5V51h-7.8v9.3h5.1c1,0,1.8-0.3,2.4-0.9c0.6-0.6,0.9-1.3,0.9-2.2s-0.3-1.6-0.9-2.2C1196,54.5,1195.2,54.2,1194.2,54.2z
			 M1194.4,57.7c-0.1,0.1-0.3,0.2-0.5,0.2h-1.9v-1.2h1.9c0.2,0,0.4,0.1,0.5,0.2c0.1,0.1,0.2,0.3,0.2,0.4
			C1194.6,57.4,1194.5,57.6,1194.4,57.7z M1201.3,56v-5h-2.8v9.3h2.7l3.4-5.3v5.3h2.8V51h-2.9L1201.3,56z"/>
	</g>
</g>
<g>
	<g>
		<path fill="#999999" d="M1106.5,15.1h-4.3v8.1h1V16h3.3V15.1z M1109.2,17.2c-0.9,0-1.6,0.4-2.1,1.1h0l0-1h-0.9c0,0.6,0,1.2,0,1.9
			v6.3h1v-3.2h0c0.3,0.6,1,0.9,1.8,0.9c1.4,0,2.6-1,2.6-3.1C1111.7,18.4,1110.6,17.2,1109.2,17.2z M1108.8,22.5
			c-0.8,0-1.4-0.5-1.6-1.2c0-0.1,0-0.3,0-0.4v-1c0-0.1,0-0.3,0.1-0.4c0.2-0.8,0.9-1.3,1.6-1.3c1.1,0,1.7,1,1.7,2.2
			C1110.6,21.6,1110,22.5,1108.8,22.5z M1115.6,20.8c-0.1,0.4-0.3,0.9-0.4,1.2h0c-0.1-0.3-0.2-0.8-0.4-1.2l-1.3-3.4h-1.2l2.1,5.4
			c0,0.1,0.1,0.2,0.1,0.3c0,0.1,0,0.1-0.1,0.3c-0.2,0.5-0.6,0.9-0.9,1.2c-0.3,0.3-0.7,0.4-0.9,0.5l0.3,0.9c0.3,0,0.8-0.2,1.3-0.7
			c0.7-0.6,1.2-1.6,2-3.6l1.6-4.1h-1.1L1115.6,20.8z M1119.1,23.2h1v-5h2.7v5h1.1v-5.8h-4.8V23.2L1119.1,23.2z M1125.1,23.2h1v-5
			h2.7v5h1.1v-5.8h-4.8V23.2L1125.1,23.2z M1135.2,19.6c0-1.2-0.4-2.4-2.2-2.4c-0.7,0-1.4,0.2-1.9,0.5l0.2,0.7
			c0.4-0.3,1-0.4,1.5-0.4c1.2,0,1.3,0.9,1.3,1.3v0.1c-2.2,0-3.5,0.8-3.5,2.2c0,0.8,0.6,1.7,1.8,1.7c0.8,0,1.5-0.4,1.8-0.9h0l0.1,0.7
			h1c-0.1-0.4-0.1-0.9-0.1-1.4L1135.2,19.6L1135.2,19.6z M1134.2,21.2c0,0.1,0,0.2-0.1,0.3c-0.2,0.5-0.6,1-1.4,1c-0.5,0-1-0.3-1-1
			c0-1.1,1.3-1.3,2.5-1.3L1134.2,21.2L1134.2,21.2z M1142.4,20l2.5-2.6h-1.3l-2.2,2.5h-0.3v-2.5h-1v5.8h1v-2.6h0.2
			c1,0,1.5,0.4,1.9,1.4c0.2,0.5,0.4,0.9,0.5,1.2h1.1c-0.3-0.5-0.5-1-0.6-1.4C1143.9,20.7,1143.3,20.1,1142.4,20z M1148.6,17.2
			c-1.6,0-2.9,1.1-2.9,3.1c0,1.8,1.2,3,2.8,3c1.4,0,2.9-0.9,2.9-3.1C1151.4,18.4,1150.3,17.2,1148.6,17.2z M1148.6,22.5
			c-1,0-1.8-1-1.8-2.2c0-1.1,0.5-2.3,1.8-2.3c1.2,0,1.7,1.2,1.7,2.2C1150.3,21.6,1149.6,22.5,1148.6,22.5z M1157.7,17.4l-0.9,2.5
			c-0.2,0.6-0.6,1.6-0.7,2h0c-0.1-0.5-0.4-1.2-0.5-1.6l-1.1-2.9h-1.3l-0.4,5.8h1l0.1-2.7c0-0.6,0.1-1.4,0.1-2.1h0
			c0.1,0.5,0.4,1.4,0.6,1.9l1,2.9h0.8l1.1-2.9c0.3-0.9,0.5-1.4,0.6-1.9h0c0,0.7,0.1,1.5,0.1,2.1l0.1,2.8h1l-0.4-5.8H1157.7z
			 M1161.1,23.2h1v-5h2.7v5h1.1v-5.8h-4.8V23.2z M1171.2,19.6c0-1.2-0.4-2.4-2.2-2.4c-0.7,0-1.4,0.2-1.9,0.5l0.2,0.7
			c0.4-0.3,1-0.4,1.5-0.4c1.2,0,1.3,0.9,1.3,1.3v0.1c-2.2,0-3.5,0.8-3.5,2.2c0,0.8,0.6,1.7,1.8,1.7c0.8,0,1.5-0.4,1.8-0.9h0l0.1,0.7
			h1c-0.1-0.4-0.1-0.9-0.1-1.4L1171.2,19.6L1171.2,19.6z M1170.2,21.2c0,0.1,0,0.2-0.1,0.3c-0.2,0.5-0.6,1-1.4,1c-0.5,0-1-0.3-1-1
			c0-1.1,1.3-1.3,2.5-1.3V21.2L1170.2,21.2z M1176.9,19.7h-2.8v-2.3h-1v5.8h1v-2.6h2.8v2.6h1v-5.8h-1V19.7z M1182,20.4
			c-0.4,0.7-0.6,1.1-0.9,1.8l0,0c0-0.8,0.1-1.4,0.1-2.3v-2.4h-1v5.8h1.2c0.6-1,1.3-2.1,1.8-3c0.3-0.6,0.6-1.1,1-1.8h0
			c0,0.9-0.1,1.4-0.1,2.4v2.5h1v-5.8h-1.2L1182,20.4z M1189.6,16.5c0.9,0,1.5-0.5,1.6-1.5h-0.8c-0.1,0.5-0.3,0.9-0.8,0.9
			c-0.5,0-0.7-0.4-0.8-0.9h-0.8C1188.1,15.8,1188.5,16.5,1189.6,16.5z M1190.9,17.4l-1.8,3c-0.4,0.7-0.6,1.1-0.9,1.8l0,0
			c0-0.8,0.1-1.4,0.1-2.3v-2.4h-1v5.8h1.2c0.6-1,1.3-2.1,1.8-3c0.3-0.6,0.6-1.1,1-1.8h0c0,0.9-0.1,1.4-0.1,2.4v2.5h1v-5.8H1190.9z"
			/>
	</g>
</g>
</svg>
