<?xml version="1.0" encoding="utf-8"?>
<!-- Generator: Adobe Illustrator 18.1.0, SVG Export Plug-In . SVG Version: 6.00 Build 0)  -->
<svg version="1.1" id="Layer_1" xmlns="http://www.w3.org/2000/svg" xmlns:xlink="http://www.w3.org/1999/xlink" x="0px" y="0px"
	 viewBox="1157.9 -512 1814.2 1814.2" enable-background="new 1157.9 -512 1814.2 1814.2" xml:space="preserve">
<path fill="#FFFF00" d="M2064.9-512c-501,0-907.1,406.1-907.1,907.1c0,501,406.1,907.1,907.1,907.1c501,0,907.1-406.1,907.1-907.1
	C2972-105.8,2565.9-512,2064.9-512L2064.9-512z M2064.9,1185.9c-436.2,0-789.9-353.6-789.9-789.9c0-436.3,353.7-789.9,789.9-789.9
	c436.2,0,789.9,353.7,789.9,789.9C2854.8,832.3,2501.2,1185.9,2064.9,1185.9z"/>
<g>
	<path fill="#FFFF00" d="M1971.4,211.1c-46.3-46.3-110.3-75-181.1-75c-70.7,0-134.7,28.6-181,75c-46.4,46.3-75,110.4-75,181.1
		c0,70.7,28.7,134.7,75,181.1c46.3,46.3,110.3,75,181,75c50.8,0,98.1-14.8,137.9-40.3v157h118.2V392.2
		C2046.4,321.5,2017.7,257.5,1971.4,211.1L1971.4,211.1z M1888.9,489.6c-24.9,24.9-59.4,40.4-97.5,40.4c-38.1,0-72.5-15.5-97.5-40.4
		c-24.9-24.9-40.4-59.4-40.4-97.5c0-38.1,15.5-72.6,40.4-97.5c25-24.9,59.4-40.4,97.5-40.4c38.1,0,72.6,15.4,97.5,40.4
		c25,24.9,40.4,59.4,40.4,97.5C1929.3,430.2,1913.8,464.7,1888.9,489.6L1888.9,489.6z M2520.6,218.8c-46.4-46.3-110.4-75-181.1-75
		c-50.8,0-98.1,14.8-137.9,40.3v-157h-118.2v372.8c0,70.7,28.6,134.7,75,181.1c46.3,46.3,110.3,75,181.1,75
		c70.7,0,134.7-28.7,181.1-75c46.3-46.3,75-110.3,75-181.1C2595.6,329.2,2567,265.2,2520.6,218.8L2520.6,218.8z M2438.2,497.3
		c-25,24.9-59.4,40.4-97.5,40.4c-38.1,0-72.6-15.4-97.5-40.4c-24.9-24.9-40.4-59.4-40.4-97.5c0-38.1,15.4-72.5,40.4-97.5
		c25-24.9,59.4-40.4,97.5-40.4c38.1,0,72.5,15.4,97.5,40.4c24.9,25,40.3,59.4,40.3,97.5C2478.5,437.9,2463.1,472.4,2438.2,497.3z"/>
</g>
</svg>
